<svg width="20" height="20" viewBox="0 0 20 20" fill="none" xmlns="http://www.w3.org/2000/svg">
<g clip-path="url(#clip0_1402_1115)">
<path fill-rule="evenodd" clip-rule="evenodd" d="M0.833008 9.99998C0.833008 4.93558 4.93527 0.833313 9.99967 0.833313C15.0641 0.833313 19.1663 4.93558 19.1663 9.99998C19.1663 15.0644 15.0641 19.1666 9.99967 19.1666C4.93527 19.1666 0.833008 15.0644 0.833008 9.99998ZM9.99967 2.49998C5.85575 2.49998 2.49967 5.85605 2.49967 9.99998C2.49967 14.1439 5.85575 17.5 9.99967 17.5C14.1436 17.5 17.4997 14.1439 17.4997 9.99998C17.4997 5.85605 14.1436 2.49998 9.99967 2.49998Z" fill="#959BA3"/>
<path d="M10 10.8333C10.6917 10.8333 11.25 10.275 11.25 9.58331C11.25 8.89165 10.6917 8.33331 10 8.33331C9.30833 8.33331 8.75 8.89165 8.75 9.58331C8.75 10.275 9.30833 10.8333 10 10.8333Z" fill="#959BA3"/>
<path d="M12.917 7.5C13.6087 7.5 14.167 6.94167 14.167 6.25C14.167 5.55833 13.6087 5 12.917 5C12.2253 5 11.667 5.55833 11.667 6.25C11.667 6.94167 12.2253 7.5 12.917 7.5Z" fill="#959BA3"/>
<path d="M7.08301 7.5C7.77467 7.5 8.33301 6.94167 8.33301 6.25C8.33301 5.55833 7.77467 5 7.08301 5C6.39134 5 5.83301 5.55833 5.83301 6.25C5.83301 6.94167 6.39134 7.5 7.08301 7.5Z" fill="#959BA3"/>
</g>
<defs>
<clipPath id="clip0_1402_1115">
<rect width="20" height="20" fill="white"/>
</clipPath>
</defs>
</svg>
