<svg width="18" height="18" viewBox="0 0 18 18" fill="none" xmlns="http://www.w3.org/2000/svg">
<path fill-rule="evenodd" clip-rule="evenodd" d="M9.00003 3.75C9.28411 3.75 9.54381 3.9105 9.67085 4.16459L11.9604 8.74377L15.0396 7.20418C15.3056 7.07117 15.6251 7.10792 15.854 7.29787C16.0829 7.48781 16.1779 7.79506 16.0962 8.08104L13.8462 15.956C13.7542 16.278 13.4599 16.5 13.125 16.5H4.87503C4.54017 16.5 4.24588 16.278 4.15389 15.956L1.90389 8.08104C1.82218 7.79506 1.91718 7.48781 2.14605 7.29787C2.37493 7.10792 2.69442 7.07117 2.96044 7.20418L6.03962 8.74377L8.32921 4.16459C8.45625 3.9105 8.71595 3.75 9.00003 3.75ZM9.00003 6.17705L7.04585 10.0854C6.86061 10.4559 6.41011 10.6061 6.03962 10.4208L3.81455 9.30829L5.44076 15H12.5593L14.1855 9.30829L11.9604 10.4208C11.59 10.6061 11.1395 10.4559 10.9542 10.0854L9.00003 6.17705Z" fill="#F2F3F5"/>
<path fill-rule="evenodd" clip-rule="evenodd" d="M2.625 6.375C2.41789 6.375 2.25 6.54289 2.25 6.75C2.25 6.95711 2.41789 7.125 2.625 7.125C2.83211 7.125 3 6.95711 3 6.75C3 6.54289 2.83211 6.375 2.625 6.375ZM0.75 6.75C0.75 5.71447 1.58947 4.875 2.625 4.875C3.66053 4.875 4.5 5.71447 4.5 6.75C4.5 7.78553 3.66053 8.625 2.625 8.625C1.58947 8.625 0.75 7.78553 0.75 6.75Z" fill="#F2F3F5"/>
<path fill-rule="evenodd" clip-rule="evenodd" d="M9 3C8.79289 3 8.625 3.16789 8.625 3.375C8.625 3.58211 8.79289 3.75 9 3.75C9.20711 3.75 9.375 3.58211 9.375 3.375C9.375 3.16789 9.20711 3 9 3ZM7.125 3.375C7.125 2.33947 7.96447 1.5 9 1.5C10.0355 1.5 10.875 2.33947 10.875 3.375C10.875 4.41053 10.0355 5.25 9 5.25C7.96447 5.25 7.125 4.41053 7.125 3.375Z" fill="#F2F3F5"/>
<path fill-rule="evenodd" clip-rule="evenodd" d="M15.375 6.375C15.1679 6.375 15 6.54289 15 6.75C15 6.95711 15.1679 7.125 15.375 7.125C15.5821 7.125 15.75 6.95711 15.75 6.75C15.75 6.54289 15.5821 6.375 15.375 6.375ZM13.5 6.75C13.5 5.71447 14.3395 4.875 15.375 4.875C16.4105 4.875 17.25 5.71447 17.25 6.75C17.25 7.78553 16.4105 8.625 15.375 8.625C14.3395 8.625 13.5 7.78553 13.5 6.75Z" fill="#F2F3F5"/>
</svg>
