<svg width="20" height="20" viewBox="0 0 20 20" fill="none" xmlns="http://www.w3.org/2000/svg">
<g clip-path="url(#clip0_671_16930)">
<path fill-rule="evenodd" clip-rule="evenodd" d="M2.08301 8.33333C2.08301 7.8731 2.4561 7.5 2.91634 7.5H17.083C17.5432 7.5 17.9163 7.8731 17.9163 8.33333V18.3333C17.9163 18.7936 17.5432 19.1667 17.083 19.1667H2.91634C2.4561 19.1667 2.08301 18.7936 2.08301 18.3333V8.33333ZM3.74967 9.16667V17.5H16.2497V9.16667H3.74967Z" fill="#F2F3F5"/>
<path fill-rule="evenodd" clip-rule="evenodd" d="M10.0003 7.5C10.4606 7.5 10.8337 7.8731 10.8337 8.33333V18.3333C10.8337 18.7936 10.4606 19.1667 10.0003 19.1667C9.54009 19.1667 9.16699 18.7936 9.16699 18.3333V8.33333C9.16699 7.8731 9.54009 7.5 10.0003 7.5Z" fill="#F2F3F5"/>
<path fill-rule="evenodd" clip-rule="evenodd" d="M2.08301 18.3333C2.08301 17.8731 2.4561 17.5 2.91634 17.5H17.083C17.5432 17.5 17.9163 17.8731 17.9163 18.3333C17.9163 18.7936 17.5432 19.1667 17.083 19.1667H2.91634C2.4561 19.1667 2.08301 18.7936 2.08301 18.3333Z" fill="#F2F3F5"/>
<path fill-rule="evenodd" clip-rule="evenodd" d="M0.833008 5.00002C0.833008 4.53978 1.2061 4.16669 1.66634 4.16669H18.333C18.7932 4.16669 19.1663 4.53978 19.1663 5.00002V8.33335C19.1663 8.79359 18.7932 9.16669 18.333 9.16669H1.66634C1.2061 9.16669 0.833008 8.79359 0.833008 8.33335V5.00002ZM2.49967 5.83335V7.50002H17.4997V5.83335H2.49967Z" fill="#F2F3F5"/>
<path fill-rule="evenodd" clip-rule="evenodd" d="M6.07709 1.07739C6.40252 0.751954 6.93016 0.751954 7.2556 1.07739L9.99967 3.82147L12.7438 1.07739C13.0692 0.751954 13.5968 0.751954 13.9223 1.07739C14.2477 1.40283 14.2477 1.93047 13.9223 2.2559L10.5889 5.58923C10.2635 5.91467 9.73586 5.91467 9.41042 5.58923L6.07709 2.2559C5.75165 1.93047 5.75165 1.40283 6.07709 1.07739Z" fill="#F2F3F5"/>
</g>
<defs>
<clipPath id="clip0_671_16930">
<rect width="20" height="20" fill="white"/>
</clipPath>
</defs>
</svg>
