<svg width="18" height="18" viewBox="0 0 18 18" fill="none" xmlns="http://www.w3.org/2000/svg">
<path fill-rule="evenodd" clip-rule="evenodd" d="M11.4377 1.12317C11.7211 0.981009 12.0637 1.03638 12.2879 1.26059L16.4505 5.42312C16.6745 5.64714 16.73 5.9894 16.5882 6.27272C16.4464 6.55604 16.1392 6.71682 15.8256 6.67182L14.5071 6.48264L12.3318 10.3976C12.5911 11.0018 12.7518 11.6136 12.7245 12.2258C12.6905 12.9893 12.3689 13.6673 11.7715 14.2647C11.6335 14.4027 11.4464 14.4802 11.2512 14.4802C11.056 14.4802 10.8689 14.4027 10.7309 14.2647L8.31725 11.8511L2.83931 15.9009C2.54668 16.1172 2.13985 16.0872 1.8822 15.8302C1.62455 15.5732 1.59346 15.1664 1.80907 14.8732L5.84781 9.38161L3.44669 6.98049C3.15933 6.69313 3.15904 6.22695 3.4464 5.93958C4.04663 5.33932 4.74501 5.01381 5.51242 4.97496C6.12919 4.94373 6.74033 5.10001 7.32853 5.37136L11.2316 3.208L11.0394 1.88681C10.9938 1.57304 11.1543 1.26532 11.4377 1.12317ZM5.10075 6.55328L7.33545 8.78798C7.59253 9.04506 7.62333 9.45136 7.40792 9.74426L5.87859 11.8238L7.95199 10.2909C8.2449 10.0743 8.65217 10.1047 8.90975 10.3623L11.1581 12.6107C11.2188 12.4597 11.2476 12.3107 11.2543 12.1604C11.2712 11.7811 11.1503 11.3093 10.8467 10.6901C10.7407 10.4738 10.7472 10.2193 10.8642 10.0088L13.4668 5.32489C13.5654 5.1475 13.73 5.02281 13.918 4.97193L12.7433 3.79721C12.6923 3.98547 12.5674 4.15022 12.3896 4.24874L7.70163 6.84719C7.48075 6.96962 7.21252 6.97022 6.99109 6.84879C6.43718 6.54504 5.97249 6.42523 5.58684 6.44476C5.42471 6.45296 5.26293 6.48634 5.10075 6.55328Z" fill="#F2F3F5"/>
</svg>
