<svg width="18" height="18" viewBox="0 0 18 18" fill="none" xmlns="http://www.w3.org/2000/svg">
<g clip-path="url(#clip0_1402_5470)">
<path d="M18 0H0V18H18V0Z" fill="white" fill-opacity="0.01"/>
<path fill-rule="evenodd" clip-rule="evenodd" d="M3.21793 6.17257C4.62345 5.00754 6.66768 3.75 8.99985 3.75C11.332 3.75 13.3762 5.00754 14.7818 6.17257C15.4952 6.76391 16.0706 7.35352 16.468 7.79527C16.6672 8.01663 16.8227 8.20214 16.9297 8.33389C16.9832 8.3998 17.0247 8.45236 17.0534 8.48934C17.0678 8.50783 17.079 8.52244 17.0869 8.53289L17.0964 8.5454L17.0993 8.54925L17.1003 8.55057C17.1004 8.55077 17.1009 8.55147 16.4999 9C17.1009 9.44853 17.1008 9.44872 17.1007 9.44893L17.0993 9.45075L17.0964 9.4546L17.0869 9.46711C17.079 9.47756 17.0678 9.49217 17.0534 9.51066C17.0247 9.54764 16.9832 9.6002 16.9297 9.66611C16.8227 9.79786 16.6672 9.98337 16.468 10.2047C16.0706 10.6465 15.4952 11.2361 14.7818 11.8274C13.3762 12.9925 11.332 14.25 8.99985 14.25C6.66768 14.25 4.62345 12.9925 3.21793 11.8274C2.50452 11.2361 1.92906 10.6465 1.53166 10.2047C1.33252 9.98337 1.17695 9.79786 1.06998 9.66611C1.01646 9.6002 0.975028 9.54764 0.946299 9.51066C0.931932 9.49217 0.920735 9.47756 0.912787 9.46711L0.903308 9.4546L0.900412 9.45075L0.899428 9.44943C0.899272 9.44923 0.898754 9.44853 1.49985 9C0.898754 8.55147 0.898897 8.55128 0.899052 8.55107L0.900412 8.54925L0.903308 8.5454L0.912787 8.53289C0.920735 8.52244 0.931932 8.50783 0.946299 8.48934C0.975028 8.45236 1.01646 8.3998 1.06998 8.33389C1.17695 8.20214 1.33252 8.01663 1.53166 7.79527C1.92906 7.35352 2.50452 6.76391 3.21793 6.17257ZM1.49985 9L0.899052 8.55107C0.700515 8.81714 0.700217 9.18247 0.898754 9.44853L1.49985 9ZM2.469 9C2.52282 9.06222 2.58217 9.12966 2.64682 9.20152C3.00846 9.60352 3.53134 10.1389 4.17517 10.6726C5.48411 11.7575 7.18988 12.75 8.99985 12.75C10.8098 12.75 12.5156 11.7575 13.8245 10.6726C14.4684 10.1389 14.9912 9.60352 15.3529 9.20152C15.4175 9.12966 15.4769 9.06222 15.5307 9C15.4769 8.93778 15.4175 8.87034 15.3529 8.79848C14.9912 8.39648 14.4684 7.86109 13.8245 7.32743C12.5156 6.24246 10.8098 5.25 8.99985 5.25C7.18988 5.25 5.48411 6.24246 4.17517 7.32743C3.53134 7.86109 3.00846 8.39648 2.64682 8.79848C2.58217 8.87034 2.52282 8.93778 2.469 9ZM16.4999 9L17.1007 9.44893C17.2992 9.18286 17.2995 8.81753 17.1009 8.55147L16.4999 9Z" fill="#F2F3F5"/>
<path fill-rule="evenodd" clip-rule="evenodd" d="M6.375 9C6.375 7.55026 7.55026 6.375 9 6.375C10.4497 6.375 11.625 7.55026 11.625 9C11.625 10.4497 10.4497 11.625 9 11.625C7.55026 11.625 6.375 10.4497 6.375 9ZM9 7.875C8.37869 7.875 7.875 8.37869 7.875 9C7.875 9.62131 8.37869 10.125 9 10.125C9.62131 10.125 10.125 9.62131 10.125 9C10.125 8.37869 9.62131 7.875 9 7.875Z" fill="#F2F3F5"/>
</g>
<defs>
<clipPath id="clip0_1402_5470">
<rect width="18" height="18" fill="white"/>
</clipPath>
</defs>
</svg>
