<svg width="18" height="18" viewBox="0 0 18 18" fill="none" xmlns="http://www.w3.org/2000/svg">
<g clip-path="url(#clip0_1402_5481)">
<path d="M18 0H0V18H18V0Z" fill="white" fill-opacity="0.01"/>
<path fill-rule="evenodd" clip-rule="evenodd" d="M0.75 7.875C0.75 3.93999 3.93999 0.75 7.875 0.75C11.81 0.75 15 3.93999 15 7.875C15 11.81 11.81 15 7.875 15C3.93999 15 0.75 11.81 0.75 7.875ZM7.875 2.25C4.76841 2.25 2.25 4.76841 2.25 7.875C2.25 10.9816 4.76841 13.5 7.875 13.5C10.9816 13.5 13.5 10.9816 13.5 7.875C13.5 4.76841 10.9816 2.25 7.875 2.25Z" fill="#F2F3F5"/>
<path fill-rule="evenodd" clip-rule="evenodd" d="M5.22359 4.84831C5.90141 4.17054 6.83993 3.75 7.87524 3.75C8.91055 3.75 9.84908 4.17054 10.5269 4.84833C10.8198 5.14123 10.8198 5.6161 10.5269 5.90899C10.234 6.20189 9.75911 6.20189 9.46621 5.90899C9.05823 5.50101 8.49676 5.25 7.87524 5.25C7.25373 5.25 6.69225 5.50101 6.28422 5.90901C5.99131 6.20189 5.51644 6.20188 5.22356 5.90897C4.93067 5.61607 4.93069 5.1412 5.22359 4.84831Z" fill="#F2F3F5"/>
<path fill-rule="evenodd" clip-rule="evenodd" d="M11.9277 11.9278C12.2206 11.6349 12.6954 11.6349 12.9883 11.9278L16.1703 15.1098C16.4632 15.4027 16.4632 15.8776 16.1703 16.1704C15.8774 16.4633 15.4026 16.4633 15.1097 16.1704L11.9277 12.9885C11.6348 12.6956 11.6348 12.2207 11.9277 11.9278Z" fill="#F2F3F5"/>
</g>
<defs>
<clipPath id="clip0_1402_5481">
<rect width="18" height="18" fill="white"/>
</clipPath>
</defs>
</svg>
